<svg width="421" height="273" viewBox="0 0 421 273" fill="none" xmlns="http://www.w3.org/2000/svg">
<g clip-path="url(#clip0_27_389)">
<path d="M23.1525 231.419C23.139 231.786 27.4921 218.603 48.9598 213.804C48.9581 213.848 56.9529 211.868 68.0631 216.225C68.0647 216.185 74.5801 218.216 76.478 218.082C76.4797 218.046 82.1009 211.456 85.1321 207.964C85.1338 207.928 81.9266 214.739 81.1957 216.596C80.464 218.412 79.4957 220.085 80.9044 223.299C80.9052 223.273 83.0801 229.195 83.6131 230.32C83.614 230.309 79.9782 227.343 78.4862 224.341C77.8673 223.078 76.3997 219.613 75.7076 219.64C75.0163 219.682 71.1397 219.991 63.8396 223.537C32.774 239.579 23.1272 232.115 23.1525 231.419Z" fill="#231F20" fill-opacity="0.27"/>
<path d="M71.117 187.17C71.1128 187.281 74.8757 178.913 93.8493 180.075C93.8485 180.111 100.915 180.343 110.785 185.664C110.786 185.64 116.573 188.346 118.257 188.549C118.258 188.529 123.216 184.367 125.893 182.074C125.894 182.054 123.076 186.853 122.435 188.166C121.794 189.457 120.943 190.59 122.207 193.31C122.208 193.289 124.163 198.239 124.641 199.199C124.641 199.193 121.403 196.295 120.067 193.722C119.512 192.639 118.194 189.715 117.581 189.621C116.967 189.53 113.53 189.144 107.077 190.487C79.6254 196.739 71.1035 187.531 71.117 187.17Z" fill="#231F20" fill-opacity="0.27"/>
<path d="M111.467 157.45C111.47 157.383 115.213 150.557 138.169 151.742C138.166 151.822 146.713 151.872 159.06 157.078C159.061 157.051 166.251 159.7 168.284 159.789C168.283 159.806 173.835 154.523 176.831 151.245C176.83 151.256 173.9 157.375 173.251 158.939C172.601 160.528 171.686 161.906 173.44 164.971C173.441 164.939 176.212 170.581 176.861 171.687C176.862 171.678 172.746 168.481 170.917 165.604C170.157 164.384 168.316 161.125 167.572 161.068C166.83 160.983 162.68 160.905 155.069 162.492C122.742 168.627 111.475 157.253 111.467 157.45Z" fill="#231F20" fill-opacity="0.27"/>
<path d="M108.524 220.409C108.52 220.521 111.893 211.413 130.829 214.566C130.828 214.593 137.876 215.592 147.926 222.684C147.927 222.667 153.796 226.282 155.473 226.607C155.474 226.592 160.179 221.9 162.715 219.251C162.715 219.237 160.164 224.859 159.592 226.375C159.02 227.875 158.232 229.182 159.613 232.443C159.613 232.431 161.782 238.298 162.298 239.411C162.298 239.408 158.958 235.921 157.513 232.818C156.912 231.524 155.467 227.995 154.854 227.842C154.242 227.693 150.822 227.059 144.483 228.17C117.529 233.259 108.517 220.599 108.524 220.409Z" fill="#231F20" fill-opacity="0.27"/>
<path d="M180.293 263.91C180.293 263.914 182.219 258.982 193.041 262.357C193.041 262.351 197.066 263.552 202.819 268.19C202.819 268.19 206.181 270.537 207.144 270.759C207.144 270.757 209.845 268.123 211.302 266.587C211.302 266.587 209.835 269.865 209.507 270.731C209.177 271.596 208.725 272.345 209.518 274.257C209.518 274.259 210.762 277.654 211.059 278.28C211.059 278.282 209.141 276.247 208.312 274.422C207.967 273.668 207.14 271.575 206.789 271.466C206.437 271.356 204.476 270.903 200.843 271.286C185.403 273.022 180.291 263.966 180.293 263.91Z" fill="#231F20" fill-opacity="0.27"/>
<path d="M175.124 178.492C175.123 178.499 177.022 174.311 187.896 176.258C187.895 176.275 191.943 176.89 197.728 180.662C197.728 180.657 201.107 182.56 202.072 182.694C202.072 182.7 204.778 179.906 206.24 178.217C206.24 178.222 204.77 181.576 204.443 182.438C204.112 183.31 203.66 184.069 204.458 185.856C204.458 185.852 205.709 189.068 206.006 189.67C206.006 189.67 204.082 187.805 203.249 186.113C202.903 185.408 202.07 183.471 201.717 183.4C201.365 183.321 199.396 183.084 195.754 183.709C180.287 186.142 175.128 178.388 175.124 178.492Z" fill="#231F20" fill-opacity="0.27"/>
<path d="M366.157 232.397C366.16 232.319 368.117 226.538 379.161 223.885C379.162 223.855 383.267 222.874 389.157 223.802C389.156 223.819 392.601 223.938 393.588 223.484C393.588 223.484 396.356 219.026 397.848 216.522C397.848 216.518 396.346 220.747 396.01 221.827C395.674 222.905 395.21 223.964 396.024 225.284C396.024 225.29 397.303 227.735 397.608 228.125C397.608 228.13 395.637 227.519 394.787 226.293C394.433 225.793 393.585 224.296 393.223 224.424C392.864 224.55 390.852 225.461 387.134 228.189C371.333 239.731 366.16 232.322 366.157 232.397Z" fill="#231F20" fill-opacity="0.27"/>
<path d="M257.09 234.834C257.09 234.823 258.691 230.634 267.69 232.729C267.69 232.726 271.037 233.455 275.818 237.018C275.818 237.02 278.614 238.772 279.415 238.866C279.415 238.871 281.673 236.165 282.894 234.535C282.894 234.541 281.659 237.746 281.384 238.563C281.106 239.387 280.728 240.121 281.383 241.753C281.383 241.756 282.412 244.676 282.658 245.203C282.658 245.203 281.065 243.587 280.378 242.034C280.094 241.396 279.409 239.601 279.117 239.541C278.826 239.477 277.191 239.302 274.167 239.971C261.317 242.675 257.092 234.773 257.09 234.834Z" fill="#231F20" fill-opacity="0.27"/>
<path d="M62.5935 262.907C62.5918 262.954 64.2287 257.766 73.3349 256.94C73.3349 256.951 76.7248 256.56 81.5469 258.993C81.5477 258.984 84.3659 260.105 85.1734 260.033C85.1742 260.027 87.4527 256.753 88.682 254.909C88.682 254.903 87.4367 258.38 87.158 259.29C86.8776 260.2 86.4962 261.032 87.1529 262.602C87.1529 262.598 88.1836 265.463 88.4294 265.988C88.4294 265.986 86.8279 264.589 86.1392 263.116C85.8529 262.503 85.1658 260.792 84.872 260.798C84.5773 260.805 82.9303 260.974 79.8738 262.483C66.886 268.975 62.5918 262.948 62.5935 262.907Z" fill="#231F20" fill-opacity="0.27"/>
<path d="M311.689 211.38C311.692 211.324 314.932 201.254 332.918 201.73C332.92 201.678 339.606 201.894 349.16 207.078C349.158 207.106 354.75 209.313 356.356 209.006C356.356 209.013 360.901 201.899 363.356 197.793C363.355 197.798 360.865 205.283 360.307 207.184C359.75 209.09 358.984 210.887 360.291 213.905C360.29 213.928 362.345 219.343 362.837 220.247C362.837 220.257 359.643 217.987 358.274 215.141C357.704 213.98 356.341 210.59 355.755 210.627C355.17 210.664 351.894 211.275 345.825 214.446C320.048 227.618 311.697 211.181 311.689 211.38Z" fill="#231F20" fill-opacity="0.27"/>
<path d="M115.7 267.451C115.698 267.531 119.123 256.998 138.044 260.568C138.044 260.568 145.083 261.782 155.11 269.506C155.11 269.5 160.971 273.349 162.65 273.623C162.651 273.598 167.382 268.205 169.93 265.228C169.93 265.209 167.355 271.494 166.776 273.197C166.198 274.874 165.403 276.366 166.775 279.88C166.775 279.878 168.928 286.181 169.442 287.341C169.442 287.343 166.105 283.759 164.668 280.406C164.072 279.017 162.639 275.169 162.025 275.022C161.411 274.885 157.99 274.32 151.636 275.834C124.611 282.875 115.692 267.678 115.7 267.451Z" fill="#231F20" fill-opacity="0.27"/>
<path d="M163.343 199.442C163.342 199.465 166.223 192.917 182.635 197.003C182.634 197.028 188.744 198.386 197.467 204.879C197.468 204.87 202.562 208.197 204.019 208.509C204.018 208.517 208.106 204.488 210.316 202.033C210.316 202.041 208.093 207.076 207.597 208.376C207.099 209.689 206.415 210.814 207.614 213.669C207.615 213.664 209.499 218.778 209.948 219.739C209.948 219.739 207.045 216.653 205.79 213.939C205.268 212.809 204.013 209.714 203.48 209.565C202.95 209.406 199.978 208.813 194.481 209.405C171.132 211.677 163.346 199.339 163.343 199.442Z" fill="#231F20" fill-opacity="0.27"/>
<path d="M221.603 190.04C221.603 190.053 225.632 179.69 248.39 183.253C248.389 183.281 256.858 184.398 268.916 193.322C268.916 193.322 275.966 197.678 277.991 197.799C277.989 197.841 283.729 189.837 286.842 184.808C286.841 184.853 283.679 194.271 282.973 196.585C282.266 198.96 281.299 201.066 282.939 205.503C282.938 205.517 285.511 213.452 286.128 214.868C286.128 214.87 282.117 210.628 280.397 206.444C279.682 204.714 277.969 199.85 277.231 199.731C276.494 199.587 272.363 199.436 264.716 201.629C232.265 209.718 221.624 189.468 221.603 190.04Z" fill="#231F20" fill-opacity="0.27"/>
<path d="M294.49 258.953C294.499 258.708 299.023 247.476 324.776 248.572C324.78 248.466 334.35 249.013 348.106 254.544C348.104 254.61 356.151 256.71 358.461 256.034C358.46 256.078 364.952 246.399 368.467 240.585C368.465 240.611 364.924 250.61 364.135 253.078C363.344 255.578 362.254 257.961 364.157 261.497C364.155 261.53 367.148 267.907 367.864 268.939C367.864 268.957 363.25 266.703 361.261 263.377C360.433 262.028 358.449 258.018 357.607 258.149C356.766 258.256 352.055 259.604 343.369 263.942C306.512 280.952 294.514 258.282 294.49 258.953Z" fill="#231F20" fill-opacity="0.27"/>
<path d="M214.525 253.382C214.526 253.351 217.728 245.708 235.839 251.402C235.84 251.385 242.576 253.446 252.216 260.916C252.215 260.926 257.85 264.652 259.463 264.947C259.462 264.96 263.991 260.364 266.439 257.521C266.438 257.541 263.975 263.271 263.424 264.716C262.873 266.184 262.114 267.47 263.444 270.552C263.443 270.565 265.537 276.021 266.035 276.999C266.035 277.003 262.816 273.847 261.424 270.907C260.845 269.697 259.456 266.301 258.867 266.137C258.279 265.972 254.99 265.379 248.909 266.067C223.072 268.808 214.527 253.324 214.525 253.382Z" fill="#231F20" fill-opacity="0.27"/>
</g>
<defs>
<clipPath id="clip0_27_389">
<rect width="421" height="500" fill="white" transform="matrix(-1 0 0 1 421 0)"/>
</clipPath>
</defs>
</svg>
